<?xml version="1.0" encoding="UTF-8"?>
<svg version="1.1" xmlns="http://www.w3.org/2000/svg" width="512" height="512">
<path d="M0 0 C1.87416791 -0.00461261 3.74833221 -0.01096795 5.62248898 -0.01890898 C10.75700288 -0.03557581 15.89121862 -0.02736788 21.02573347 -0.0149641 C26.56910673 -0.00590515 32.11242912 -0.01988755 37.65579224 -0.03088379 C48.50909989 -0.04866452 59.36229686 -0.04483097 70.21560884 -0.03323323 C79.03680469 -0.02419745 87.85796954 -0.02297554 96.6791687 -0.02732849 C97.93494058 -0.02794142 99.19071245 -0.02855436 100.48453802 -0.02918586 C103.03566338 -0.03046477 105.58678872 -0.03176162 108.13791406 -0.03307623 C131.37462272 -0.04415566 154.6112666 -0.03266844 177.84796153 -0.01170584 C199.0501219 0.00727591 220.25218617 0.00557737 241.4543457 -0.0135498 C265.28757955 -0.03497881 289.12076041 -0.0433821 312.95400715 -0.03110075 C315.49571545 -0.02982656 318.03742376 -0.02856908 320.57913208 -0.02732849 C321.82968114 -0.02671139 323.08023021 -0.02609429 324.3686747 -0.02545848 C333.17864742 -0.02200568 341.98858603 -0.02783245 350.79855347 -0.0372467 C361.5358637 -0.04846835 372.27305696 -0.04542305 383.0103538 -0.02412373 C388.48804839 -0.01361566 393.965548 -0.00948752 399.44324112 -0.02272034 C404.45938153 -0.03465483 409.47514657 -0.02806398 414.49125302 -0.00681013 C416.30403687 -0.00234859 418.11685254 -0.00460024 419.92961586 -0.01431328 C430.88298734 -0.06849273 440.88848665 -0.03037336 449.50415039 7.63293457 C456.89883111 15.87970425 457.21070355 25.42070792 457.13708496 36.01319885 C457.14170064 37.46735123 457.14805802 38.92149894 457.15599394 40.37563699 C457.17261881 44.34915046 457.16447237 48.3222773 457.15204906 52.29579175 C457.14297278 56.58965113 457.156981 60.88344553 457.16796875 65.17729187 C457.18573065 73.5798112 457.18192452 81.9821874 457.17031819 90.38471229 C457.16127556 97.21459568 457.16006345 104.04443904 457.16441345 110.87432671 C457.16502638 111.84730046 457.16563932 112.82027421 457.16627082 113.82273201 C457.16754975 115.7994491 457.16884661 117.77616618 457.17016119 119.75288325 C457.18156001 138.27670895 457.16846392 156.80045539 457.14695972 175.3242681 C457.12908656 191.2121087 457.13219601 207.0998324 457.15063477 222.9876709 C457.17204895 241.44788059 457.1804644 259.90802088 457.16818571 278.36824125 C457.16691154 280.33728022 457.16565406 282.30631921 457.16441345 284.2753582 C457.1634878 285.72848399 457.1634878 285.72848399 457.16254345 287.21096586 C457.1590924 294.03167816 457.16491354 300.85234636 457.17433167 307.67305183 C457.18555898 315.98653088 457.18249607 324.29985888 457.16120869 332.61332066 C457.15070857 336.85347258 457.1465587 341.09337283 457.1598053 345.3335228 C457.17175649 349.21780837 457.16512219 353.10160982 457.14389509 356.9858517 C457.13944056 358.38812141 457.14166945 359.79043232 457.15139824 361.19267536 C457.21931591 371.79846266 455.72128895 380.01404414 448.39868164 388.00402832 C441.47741948 393.88633722 432.81549412 394.66547486 424.0741272 394.62818909 C423.33396122 394.62904351 422.59379525 394.62989794 421.8312 394.63077825 C419.36229521 394.63241941 416.89345904 394.6269341 414.42456055 394.62145996 C412.65029909 394.62117777 410.87603751 394.62133645 409.10177612 394.62190247 C404.2923572 394.62218919 399.48296325 394.6163126 394.67355013 394.60932851 C389.64470325 394.60307421 384.61585579 394.60248953 379.58700562 394.6013031 C370.0673879 394.59819591 360.54778169 394.58999076 351.02816904 394.57995361 C340.18905993 394.56877347 329.34995028 394.56327723 318.51083684 394.55825818 C296.21693494 394.54780765 273.92304339 394.53022005 251.62915039 394.50793457 C252.0702671 397.85969403 252.52617643 401.20928578 252.98461914 404.55871582 C253.10832886 405.50009399 253.23203857 406.44147217 253.35949707 407.41137695 C255.24859305 421.06344225 260.36756258 435.02666936 271.34399414 443.97277832 C278.56839657 448.82609482 285.8771663 451.47873523 294.51806641 451.79748535 C305.08081267 452.2011278 313.94466134 452.92973893 321.93774414 460.53527832 C327.36511895 466.86512654 328.83824395 473.72071952 328.94165039 481.88293457 C328.98515625 483.01602051 328.98515625 483.01602051 329.02954102 484.17199707 C329.07468283 488.14447682 328.92398059 490.04471681 326.73461914 493.48449707 C322.78351532 497.28166178 318.97429536 496.65619924 313.76652527 496.65510559 C312.83729431 496.65878228 311.90806335 496.66245897 310.95067388 496.66624707 C307.81769636 496.67731461 304.68475198 496.68113292 301.55175781 496.68493652 C299.31329746 496.6911988 297.07483816 496.69784538 294.83638 496.70484924 C288.7413194 496.72227959 282.64626665 496.73281628 276.55118728 496.74105477 C272.74632044 496.7462 268.94145606 496.7522759 265.13659096 496.7585659 C254.60487162 496.7754377 244.07315342 496.79007316 233.54142284 496.79731464 C230.80788865 496.79922458 228.07435447 496.80114491 225.34082031 496.80310059 C224.32169389 496.8038262 224.32169389 496.8038262 223.28197906 496.80456647 C212.27293748 496.81286888 201.26400448 496.83820919 190.25501033 496.87068126 C178.95592939 496.90373767 167.65690162 496.9214292 156.35776597 496.92495888 C150.0122184 496.92731398 143.66684244 496.93633421 137.32134056 496.96142006 C131.3533534 496.98463195 125.38565168 496.9889617 119.41763115 496.97865868 C117.22502953 496.97816155 115.03241419 496.98453379 112.83985519 496.99821472 C109.85046668 497.01582663 106.86211446 497.00888007 103.87272644 496.99568176 C103.00151868 497.00665101 102.13031091 497.01762025 101.23270291 497.0289219 C97.16207066 496.98541948 95.13462035 496.82736861 91.61392689 494.60245037 C87.2325969 489.97887441 88.24892999 483.81454987 88.35180664 477.79309082 C88.57476893 472.67383226 89.74317481 468.76519668 92.62915039 464.50793457 C93.28270508 463.54307129 93.28270508 463.54307129 93.94946289 462.55871582 C98.49454833 456.63520283 104.29655465 453.61767678 111.62915039 452.50793457 C113.60384308 452.41707448 115.5787898 452.32828386 117.5546875 452.26916504 C130.75609625 451.82662697 141.95466967 448.45169532 151.41040039 438.66418457 C159.8132432 428.2035027 163.16852818 415.20382236 164.71118164 402.14465332 C164.80065063 401.40775269 164.89011963 400.67085205 164.9822998 399.91162109 C165.20056972 398.11071182 165.41523126 396.30936583 165.62915039 394.50793457 C164.70977471 394.50977816 163.79039904 394.51162174 162.84316349 394.51352119 C140.45818559 394.55771697 118.07321523 394.59079931 95.68820286 394.61155891 C84.86292007 394.6218653 74.03766642 394.63591347 63.21240234 394.65881348 C53.77556095 394.67876684 44.33874068 394.69165564 34.90187877 394.69611156 C29.90655493 394.69871563 24.91129148 394.70482312 19.91598701 394.71939468 C15.21042871 394.73300932 10.50495547 394.73714936 5.79937935 394.73414993 C4.07610613 394.73469836 2.35282995 394.73865261 0.62957382 394.74634552 C-22.59237311 394.84489282 -22.59237311 394.84489282 -31.37084961 387.50793457 C-36.97618953 381.48001913 -39.61707076 375.62494747 -39.62811852 367.30026627 C-39.63456741 366.06833172 -39.6410163 364.83639718 -39.64766061 363.56713128 C-39.64471863 362.20822626 -39.64158321 360.84932166 -39.63827515 359.49041748 C-39.64201296 358.04043394 -39.646615 356.59045242 -39.65200579 355.14047408 C-39.66423518 351.15995918 -39.6639754 347.17952833 -39.66161704 343.19899893 C-39.66120886 338.9043813 -39.67224821 334.60979062 -39.68173218 330.31518555 C-39.69834304 321.90246587 -39.70384177 313.48977422 -39.70495693 305.07703951 C-39.70590741 298.23801893 -39.71001769 291.39900759 -39.71635818 284.55998993 C-39.73397118 265.16728076 -39.74319702 245.77459372 -39.74169724 226.3818765 C-39.74157737 224.81377231 -39.74157737 224.81377231 -39.74145508 223.21398926 C-39.74137332 222.16730897 -39.74129156 221.12062869 -39.74120732 220.04223081 C-39.7403945 203.08116433 -39.75953089 186.12018666 -39.78773181 169.15914586 C-39.81646424 151.74089015 -39.83027189 134.32267774 -39.82854426 116.90439773 C-39.82788046 107.12649647 -39.8333683 97.34868832 -39.85490036 87.57080841 C-39.8731169 79.24519849 -39.87745563 70.91972388 -39.86388151 62.59410265 C-39.85735413 58.34776862 -39.85722626 54.10169413 -39.87458801 49.85538483 C-39.89033419 45.96411962 -39.88743964 42.07331942 -39.87001975 38.18206546 C-39.86695321 36.77830558 -39.87056921 35.37451086 -39.8817399 33.97079208 C-39.9555985 24.02691899 -39.11460238 15.29373932 -32.24584961 7.63293457 C-22.92490899 -0.65769054 -11.74624813 -0.06293804 0 0 Z " fill="#263C49" transform="translate(47.370849609375,7.4920654296875)"/>
<path d="M0 0 C0.70663469 -0.00696761 1.41326938 -0.01393521 2.14131725 -0.02111396 C4.51559373 -0.03839651 6.8882466 -0.01997429 9.26249695 -0.0017767 C10.97917326 -0.0068205 12.69584432 -0.01404804 14.41250324 -0.02327484 C19.1347844 -0.04224778 23.85654949 -0.02993504 28.57881784 -0.0125519 C33.66956251 0.00079222 38.76023017 -0.01460436 43.85096741 -0.02637386 C53.82566616 -0.04477691 63.80016934 -0.03622034 73.77486205 -0.01828564 C81.87969201 -0.00427416 89.98446879 -0.00036371 98.08930969 -0.00372791 C99.2417389 -0.00420536 100.39416812 -0.0046828 101.58151942 -0.00517471 C103.92247511 -0.00620101 106.26343079 -0.00725637 108.60438645 -0.00834047 C129.31590193 -0.01691293 150.02732284 -0.00021482 170.73881531 0.02948856 C190.84757968 0.05832726 210.9562078 0.0654102 231.06498718 0.04999638 C252.94904617 0.0332448 274.83304043 0.02918936 296.7171011 0.04670674 C299.04956499 0.04855117 301.38202889 0.0503859 303.7144928 0.05221081 C305.43602986 0.05357894 305.43602986 0.05357894 307.19234544 0.05497472 C315.28976583 0.0605866 323.38715468 0.05726686 331.48457336 0.05066586 C341.34930052 0.0429436 351.21389344 0.04964528 361.07859349 0.0748409 C366.11412732 0.08736166 371.14945188 0.09345129 376.18499374 0.08229923 C380.79153169 0.07228972 385.39765148 0.08064598 390.00413835 0.10388041 C391.67364253 0.10905789 393.3431839 0.1074453 395.01267207 0.09848576 C397.27688704 0.08734218 399.53967534 0.10066671 401.80380249 0.12025452 C403.06290278 0.121446 404.32200308 0.12263748 405.61925793 0.12386507 C409.54508117 0.72487827 411.21124316 1.7295485 413.90190125 4.62641239 C414.5274964 6.81137943 414.5274964 6.81137943 414.52831364 9.2304163 C414.54073567 10.15553013 414.55315771 11.08064396 414.56595618 12.03379154 C414.55412045 13.04662205 414.54228472 14.05945255 414.53009033 15.10297489 C414.53718472 16.18162815 414.54427911 17.26028141 414.55158848 18.37162113 C414.5692393 21.99857692 414.55102643 25.62447113 414.53300476 29.25141239 C414.53814083 31.84646946 414.54541973 34.44152304 414.5546875 37.03656864 C414.57308138 43.36081335 414.56454036 49.68474942 414.54659928 56.00898457 C414.53258225 61.14808427 414.52867852 66.2871001 414.53204155 71.42621708 C414.53251899 72.1572156 414.53299643 72.88821411 414.53348834 73.6413641 C414.53451466 75.12630306 414.53557002 76.611242 414.53665411 78.09618092 C414.5452247 91.23131989 414.52853461 104.36630971 414.49882507 117.50141239 C414.46998676 130.25147613 414.46290362 143.00132498 414.47831726 155.75141239 C414.49507252 169.63032126 414.49912056 183.50912807 414.4816069 197.38803959 C414.47976248 198.86756228 414.47792776 200.34708499 414.47610283 201.8266077 C414.47519074 202.55459002 414.47427865 203.28257233 414.47333892 204.03261471 C414.4677293 209.16643715 414.47104465 214.30020983 414.47764778 219.43402958 C414.48617979 226.34186658 414.47324379 233.24938782 414.44579887 240.15717411 C414.43889482 242.69687827 414.43883853 245.23661133 414.4460144 247.77631474 C414.45466163 251.23450994 414.43883199 254.691736 414.41656494 258.14984989 C414.42480571 259.1626804 414.43304648 260.1755109 414.44153696 261.21903324 C414.36052252 268.00303885 414.36052252 268.00303885 411.99473476 271.21869755 C408.72922365 273.41519738 406.93959446 273.75068107 403.02980042 273.74666691 C402.00052429 273.74804157 400.97124817 273.74941624 399.91078186 273.75083256 C398.77718231 273.74723728 397.64358276 273.74364201 396.47563171 273.73993778 C395.28540405 273.74008381 394.09517639 273.74022984 392.86888123 273.74038029 C389.60049184 273.73980197 386.33214498 273.73477813 383.0637641 273.72780633 C379.64979581 273.72156556 376.23582674 273.72096842 372.82185364 273.71978092 C366.35495652 273.71666975 359.88807625 273.70845923 353.42118657 273.69843143 C346.05973482 273.68726368 338.69828228 273.68175817 331.33682418 273.676736 C316.19184047 273.66627644 301.04687254 273.64868112 285.90190125 273.62641239 C285.75551916 269.62680341 285.66746801 265.62789181 285.58940125 261.62641239 C285.54750671 260.50106083 285.50561218 259.37570927 285.46244812 258.21625614 C285.35918947 251.15336451 285.91146191 245.91912498 290.90190125 240.62641239 C292.80947496 239.23836847 294.73273706 238.05344469 296.7808075 236.88422489 C304.48124662 232.31785031 308.45520972 227.2137649 310.90190125 218.62641239 C311.43570656 214.79153245 311.50651567 211.01805057 311.51127625 207.14984989 C311.5278125 206.09858921 311.54434875 205.04732853 311.56138611 203.96421146 C311.60953841 200.64321707 311.63116442 197.32267947 311.65190125 194.00141239 C311.68008827 191.73446273 311.71001947 189.46753404 311.741745 187.20063114 C311.81528813 181.67597361 311.86712181 176.15144279 311.90190125 170.62641239 C312.77061356 170.62094395 312.77061356 170.62094395 313.65687561 170.61536503 C319.72511362 170.57331374 325.79261114 170.5038121 331.86039734 170.41889286 C334.12008735 170.3907961 336.37987358 170.36952582 338.63969421 170.3554163 C341.90207277 170.3338302 345.16330811 170.2870989 348.42533875 170.23578739 C349.4236673 170.23455875 350.42199585 170.23333012 351.45057678 170.23206425 C358.7855615 170.0814397 366.11657845 168.94130891 371.81556702 163.95057011 C378.08989109 157.21170001 379.46230638 150.81667378 379.2651825 141.79047489 C378.75929797 137.38438389 377.24679848 134.31491862 374.90190125 130.62641239 C374.46490906 129.59193974 374.46490906 129.59193974 374.01908875 128.53656864 C372.61515552 126.13613736 371.40049813 125.7838382 368.90190125 124.62641239 C368.25532059 124.28027897 367.60873993 123.93414555 366.94256592 123.57752323 C360.75034916 120.48652653 355.37630392 120.02542834 348.522995 120.01703739 C347.47031937 120.00050114 346.41764374 119.98396488 345.33306885 119.96692753 C342.00178542 119.9187066 338.67095765 119.89713372 335.33940125 119.87641239 C333.06789427 119.84823113 330.79640827 119.81830071 328.52494812 119.78656864 C322.98401451 119.71295487 317.44320768 119.66116105 311.90190125 119.62641239 C311.8240741 118.61973515 311.8240741 118.61973515 311.74467468 117.59272099 C311.6676532 116.70407352 311.59063171 115.81542606 311.51127625 114.89984989 C311.43876648 114.02248173 311.36625671 113.14511356 311.29154968 112.24115849 C310.49653915 106.90621936 308.28219721 102.93769356 304.40190125 99.25141239 C297.72744833 94.913018 291.81076239 94.75944551 283.90190125 95.62641239 C278.66878452 97.56282561 274.93630737 100.95809528 271.90190125 105.62641239 C270.66173455 108.30587689 270.66173455 108.30587689 269.90190125 110.62641239 C269.57190125 110.62641239 269.24190125 110.62641239 268.90190125 110.62641239 C268.88772156 109.34766239 268.87354187 108.06891239 268.8589325 106.75141239 C268.81199931 105.04304443 268.76375213 103.33471222 268.71440125 101.62641239 C268.70860046 100.7872327 268.70279968 99.94805302 268.69682312 99.08344364 C268.47668237 92.77274203 266.89189508 88.54456772 262.90190125 83.62641239 C257.04978156 78.31867594 252.41036415 78.11271011 244.68315125 78.29047489 C239.60642693 78.74150618 236.43709182 79.95155997 232.90190125 83.62641239 C231.37346262 85.7092469 230.04854805 87.78459571 228.8120575 90.05219364 C228.51170593 90.57168583 228.21135437 91.09117802 227.90190125 91.62641239 C227.57190125 91.62641239 227.24190125 91.62641239 226.90190125 91.62641239 C226.84582703 90.24969364 226.84582703 90.24969364 226.78862 88.84516239 C226.24161613 76.95111883 226.24161613 76.95111883 220.52690125 66.81391239 C214.37790004 61.68974472 209.5626447 60.84440132 201.647995 61.15375614 C196.19731378 61.84148547 192.64479193 63.61497349 188.90190125 67.62641239 C187.16979222 70.26716877 186.07585879 72.66599771 184.90190125 75.62641239 C184.57190125 75.62641239 184.24190125 75.62641239 183.90190125 75.62641239 C183.87612 74.49203739 183.85033875 73.35766239 183.82377625 72.18891239 C183.67541039 59.64391015 183.67541039 59.64391015 177.44487 49.11859989 C172.06346982 44.35027062 167.84935763 43.11152016 160.79252625 43.24359989 C154.94419363 44.01810881 150.6355635 46.89275014 146.52690125 51.00141239 C141.69083161 58.81352488 141.43654169 65.11535061 141.3901825 74.21625614 C141.37223129 75.51591816 141.35428009 76.81558018 141.33578491 78.15462589 C141.28851408 81.58877423 141.25855753 85.02285793 141.23234558 88.45722294 C141.20242339 91.97012943 141.15593354 95.48281369 141.11088562 98.99555302 C141.02511405 105.87237902 140.95765338 112.74927922 140.90190125 119.62641239 C135.08578307 119.94959381 129.27495301 120.18441748 123.45195007 120.34052372 C121.47543795 120.40561601 119.49954523 120.49413175 117.52519226 120.60712528 C101.51975862 121.49968164 101.51975862 121.49968164 97.15159607 118.37394047 C93.88955348 114.90852135 92.01554633 110.86594811 89.90190125 106.62641239 C84.26561177 100.31880956 77.72944191 96.12729927 69.21000671 95.24335575 C65.65999714 95.0730596 62.11657299 95.06406297 58.5632782 95.10492802 C56.33976124 95.12640891 54.1194618 95.10503476 51.89604187 95.07953739 C43.28908418 95.06180539 36.7275528 95.47388709 29.91362 101.33734989 C25.01659865 107.49112892 22.60951615 112.21306922 22.30815125 120.16156864 C23.20405303 123.88073987 24.88905196 125.33358984 27.90190125 127.62641239 C31.43031878 128.29557471 31.43031878 128.29557471 35.21440125 128.18891239 C41.15716858 128.36674902 46.2279733 128.63170057 50.90190125 132.62641239 C54.10859748 136.18853063 56.16893061 139.78450649 56.46440125 144.62641239 C56.05542556 150.39751371 53.55989281 155.01093343 49.46440125 159.00141239 C43.21889265 162.96197882 37.6700166 162.92879243 30.397995 163.08734989 C26.88829355 163.3592384 26.88829355 163.3592384 24.4683075 165.36859989 C21.75445166 169.28034221 22.22107029 173.05315398 22.90190125 177.62641239 C25.60975858 185.98167273 31.31989121 190.69499978 38.90190125 194.62641239 C44.20592041 196.39441878 49.85051357 195.8963404 55.40190125 195.93891239 C56.63166687 195.9679163 57.8614325 195.9969202 59.12846375 196.02680302 C69.06972906 196.09539986 77.51733428 195.01522145 85.116745 188.16547489 C86.37618235 186.87868678 87.61730855 185.57371929 88.83940125 184.25141239 C89.4716864 183.60430302 90.10397156 182.95719364 90.75541687 182.29047489 C93.51434166 179.41864552 95.70467545 177.01545564 97.52226257 173.43012333 C99.90190125 170.62641239 99.90190125 170.62641239 101.83816528 170.10465336 C104.33370417 169.93030729 106.76114999 169.95211039 109.26127625 170.04047489 C110.1656543 170.04896458 111.07003235 170.05745426 112.0018158 170.06620121 C114.88639682 170.09975154 117.76816745 170.17503164 120.65190125 170.25141239 C122.60889208 170.28150999 124.5659268 170.30888615 126.522995 170.33344364 C131.31704426 170.39954808 136.10899656 170.50307953 140.90190125 170.62641239 C140.91124695 171.41177372 140.92059265 172.19713505 140.93022156 173.0062952 C140.9845331 176.63025943 141.06806007 180.2530157 141.15190125 183.87641239 C141.16608093 185.11133427 141.18026062 186.34625614 141.19487 187.61859989 C141.49447953 199.00376207 143.75837129 208.41971856 150.53471375 217.68891239 C151.90190125 219.62641239 151.90190125 219.62641239 152.83158875 221.75141239 C154.20851776 224.16355081 155.38756988 224.47257539 157.90190125 225.62641239 C160.10784796 227.17503155 162.26007451 228.74454441 164.40190125 230.37641239 C164.97037781 230.79406864 165.53885437 231.21172489 166.1245575 231.64203739 C166.68014343 232.06484989 167.23572937 232.48766239 167.80815125 232.92328739 C168.3063739 233.29808231 168.80459656 233.67287724 169.31791687 234.05902958 C172.73666604 237.44194722 174.75101959 240.42406407 175.35600281 245.24506474 C175.33505554 246.55426884 175.31410828 247.86347294 175.29252625 249.21234989 C175.28686646 249.91413364 175.28120667 250.6159174 175.27537537 251.33896732 C175.25314607 253.56050326 175.20298181 255.78037162 175.15190125 258.00141239 C175.13181856 259.51571186 175.11357089 261.03003685 175.09721375 262.54438114 C175.05332758 266.23892507 174.98439701 269.93250573 174.90190125 273.62641239 C151.40611884 273.74319428 127.91037991 273.83137546 104.41436577 273.88547325 C93.50483882 273.91125903 82.59549216 273.94641686 71.68608093 274.00360966 C62.17785177 274.05343298 52.66975317 274.08570068 43.1613971 274.09685487 C38.12634821 274.10337541 33.09167284 274.11870849 28.05674362 274.15506268 C23.31742617 274.18900513 18.57863606 274.19946886 13.8392086 274.1919508 C12.1001378 274.19332613 10.36104934 274.20326918 8.62208366 274.22243977 C6.24570557 274.24735182 3.8713132 274.24132607 1.49488831 274.22768497 C0.80810371 274.24224918 0.12131912 274.25681339 -0.58627713 274.27181894 C-4.77032521 274.20698307 -7.89733797 273.29866147 -10.97897482 270.36428708 C-13.369368 266.65227301 -12.91306399 262.34772401 -12.85327148 258.07428837 C-12.86192586 256.9995698 -12.87058024 255.92485124 -12.87949687 254.81756544 C-12.90111958 251.20971059 -12.87977437 247.60339195 -12.8585968 243.99555302 C-12.86508852 241.41182053 -12.87414846 238.8280934 -12.8855896 236.24437809 C-12.90841953 229.95130618 -12.89893615 223.65867833 -12.87808874 217.36561525 C-12.86180678 212.25132773 -12.85760464 207.13716144 -12.86205482 202.02285099 C-12.8626855 201.29505205 -12.86331618 200.56725311 -12.86396596 199.81739965 C-12.86531201 198.33890495 -12.86669158 196.86041027 -12.86810432 195.38191563 C-12.88004229 181.51693209 -12.85597213 167.65219203 -12.81908623 153.78726393 C-12.78819304 141.88964773 -12.78582202 129.99231187 -12.80488586 118.09467411 C-12.82699679 104.27945644 -12.83314329 90.46439592 -12.81256324 76.6491704 C-12.8104003 75.17610488 -12.8082512 73.70303935 -12.8061161 72.22997379 C-12.80451656 71.14280004 -12.80451656 71.14280004 -12.80288469 70.03366318 C-12.79641433 64.92533448 -12.80118201 59.81708663 -12.81014061 54.70876408 C-12.82177503 47.83367634 -12.8066146 40.9590786 -12.77339745 34.08406353 C-12.76517362 31.55768298 -12.76549354 29.03125838 -12.77487564 26.50488186 C-12.78625837 23.06222293 -12.76699097 19.62107459 -12.73974609 16.17853642 C-12.75021758 15.17319182 -12.76068907 14.16784722 -12.77147788 13.13203764 C-12.75782244 12.20903286 -12.74416701 11.28602807 -12.73009777 10.33505344 C-12.72874394 9.54073083 -12.7273901 8.74640822 -12.72599524 7.92801523 C-10.92686933 1.3331809 -6.20396788 0.00132884 0 0 Z " fill="#344E5B" transform="translate(55.09809875488281,42.3735876083374)"/>
<path d="M0 0 C6.06231832 3.55931568 10.49855673 8.32097057 12.6875 15.0859375 C12.97617792 17.71399592 13.19154038 20.26504581 13.3125 22.8984375 C13.35117188 23.59130859 13.38984375 24.28417969 13.4296875 24.99804688 C13.52323568 26.69360765 13.60642364 28.38973462 13.6875 30.0859375 C13.955625 29.56644531 14.22375 29.04695313 14.5 28.51171875 C17.56051973 23.06520172 20.61962302 19.10856316 26.6875 17.0859375 C34.9810036 15.8854414 41.9564736 16.0686816 48.85546875 21.08984375 C53.78107417 26.45654816 55.31770982 31.46686802 55.9375 38.5234375 C56.01484375 39.25498047 56.0921875 39.98652344 56.171875 40.74023438 C56.3580671 42.52069635 56.52484664 44.30317105 56.6875 46.0859375 C57.2959375 45.14234375 57.904375 44.19875 58.53125 43.2265625 C61.44568174 38.98162932 64.89021793 35.98858835 69.6875 34.0859375 C73.1484375 33.75 73.1484375 33.75 77.0625 33.7109375 C78.34898437 33.68257812 79.63546875 33.65421875 80.9609375 33.625 C86.34242282 34.29063445 90.08948982 36.86652741 93.4375 41.0859375 C97.47374065 46.4675917 98.04973755 50.23403087 98.3125 56.8359375 C98.35117187 57.62871094 98.38984375 58.42148438 98.4296875 59.23828125 C98.523608 61.18713166 98.60662822 63.13650201 98.6875 65.0859375 C99.285625 63.98894531 99.88375 62.89195312 100.5 61.76171875 C103.37197785 56.74207789 107.23881863 53.25778952 112.6875 51.0859375 C120.13672703 50.21441463 126.9859037 49.99151082 133.140625 54.66015625 C136.76633574 58.0020361 139.40849143 61.28965535 140.6875 66.0859375 C140.73880099 67.81050581 140.75113856 69.53646902 140.734375 71.26171875 C140.72760742 72.16446533 140.72083984 73.06721191 140.71386719 73.99731445 C140.70516602 74.68656006 140.69646484 75.37580566 140.6875 76.0859375 C141.26664154 76.07483444 141.84578308 76.06373138 142.44247437 76.05229187 C148.51015688 75.94104446 154.57754631 75.86600129 160.64599609 75.8112793 C162.90588157 75.78624841 165.16568702 75.75221312 167.42529297 75.70874023 C170.68737619 75.64758517 173.94838245 75.61961248 177.2109375 75.59765625 C178.70843033 75.55894661 178.70843033 75.55894661 180.23617554 75.51945496 C188.72117412 75.51611787 195.08432719 78.0310736 201.5625 83.5234375 C207.42505041 90.59298359 209.11838656 95.57220073 209.02734375 104.65625 C208.27241432 112.27496305 204.59655245 117.96117032 198.82421875 122.83203125 C191.69995155 127.01281694 185.49217109 127.50303365 177.40625 127.37890625 C176.35215942 127.37466141 175.29806885 127.37041656 174.21203613 127.36604309 C170.87025595 127.34935155 167.5290956 127.31171659 164.1875 127.2734375 C161.91146709 127.25837838 159.63542465 127.24469213 157.359375 127.23242188 C151.80187454 127.19947931 146.24473158 127.14937556 140.6875 127.0859375 C140.69638245 127.66507904 140.70526489 128.24422058 140.7144165 128.84091187 C140.80341527 134.90865129 140.86345055 140.97620309 140.90722656 147.04443359 C140.92725089 149.30427593 140.95447862 151.56406705 140.98925781 153.82373047 C141.03818078 157.08574112 141.06056132 160.34706237 141.078125 163.609375 C141.10909271 165.10686783 141.10909271 165.10686783 141.14068604 166.63461304 C141.14336187 175.13922699 139.32523782 182.4899971 133.5 188.8984375 C130.30144637 191.85623978 126.88574093 193.73687688 122.8984375 195.45703125 C119.66421016 197.63043802 119.66421016 197.63043802 115.6875 205.0859375 C115.3575 213.3359375 115.0275 221.5859375 114.6875 230.0859375 C78.0575 230.0859375 41.4275 230.0859375 3.6875 230.0859375 C3.3575 219.5259375 3.0275 208.9659375 2.6875 198.0859375 C-1.27115376 192.54382224 -3.12280154 190.10166984 -8.3125 186.4609375 C-19.47165454 178.57551452 -27.55262623 168.71189575 -30.3125 155.0859375 C-30.39397598 152.91534718 -30.42002942 150.74240899 -30.41015625 148.5703125 C-30.40532227 146.69472656 -30.40532227 146.69472656 -30.40039062 144.78125 C-30.38782227 142.82832031 -30.38782227 142.82832031 -30.375 140.8359375 C-30.37048828 139.51851562 -30.36597656 138.20109375 -30.36132812 136.84375 C-30.34954316 133.59110009 -30.33309011 130.33854166 -30.3125 127.0859375 C-36.0427098 127.03102267 -41.76970395 127.02848116 -47.5 127.07373047 C-49.44758415 127.08182382 -51.39528164 127.07579628 -53.34277344 127.05517578 C-56.14928049 127.02794206 -58.95145744 127.05208105 -61.7578125 127.0859375 C-62.62366974 127.066521 -63.48952698 127.04710449 -64.38162231 127.02709961 C-68.06814312 127.11434918 -70.38579174 127.20714836 -73.13172913 129.81109619 C-74.65427288 131.84361273 -75.97550826 133.92879965 -77.3125 136.0859375 C-79.27632111 138.43816084 -81.36451599 140.63959087 -83.5 142.8359375 C-84.00080078 143.38636719 -84.50160156 143.93679687 -85.01757812 144.50390625 C-91.44241328 151.09469656 -99.15959034 153.20376798 -108.1953125 153.6171875 C-110.60937471 153.62767203 -113.02361468 153.61698426 -115.4375 153.5859375 C-117.25314453 153.60914063 -117.25314453 153.60914063 -119.10546875 153.6328125 C-128.5883598 153.59153767 -136.33738102 151.86176737 -143.3125 145.0859375 C-147.9336617 138.8803775 -149.50241492 134.19737138 -149.87109375 126.5859375 C-149.02991915 122.82123998 -147.35151244 121.39153494 -144.3125 119.0859375 C-140.82421875 118.51953125 -140.82421875 118.51953125 -137 118.5234375 C-131.05808732 118.35840439 -126.04950272 117.96832632 -121.3125 114.0859375 C-117.50389014 109.30076101 -115.91827861 105.37743194 -116.04296875 99.2109375 C-116.60161285 94.80655503 -118.4582542 91.65894808 -121.83203125 88.796875 C-127.41242484 85.41702877 -133.49062829 85.60644309 -139.82421875 85.5546875 C-143.85822988 85.01260314 -145.45904184 83.92351371 -148.3125 81.0859375 C-150.19433842 77.32226067 -149.81749384 73.18460846 -149.3125 69.0859375 C-146.74727424 61.6779491 -141.18973168 55.47059318 -134.13891602 52.02319336 C-128.78894428 50.24911186 -123.08487723 50.63480042 -117.49536133 50.60546875 C-115.27984126 50.58619707 -113.06815445 50.5241776 -110.85351562 50.4609375 C-99.71298179 50.29546041 -90.9852947 52.58608428 -82.5 60.3359375 C-72.3125 71.55222445 -72.3125 71.55222445 -72.3125 76.0859375 C-58.4525 76.0859375 -44.5925 76.0859375 -30.3125 76.0859375 C-30.37050781 71.94289063 -30.42851562 67.79984375 -30.48828125 63.53125 C-30.52049387 60.2030614 -30.54758711 56.87491754 -30.57125092 53.54666138 C-30.5975257 50.04673366 -30.6325635 46.54742311 -30.68969727 43.04785156 C-30.75501215 39.02142774 -30.77878893 34.99564534 -30.80078125 30.96875 C-30.82658768 29.72980988 -30.8523941 28.49086975 -30.87898254 27.21438599 C-30.88165651 18.85613427 -29.60609272 11.87467413 -23.86933899 5.47634888 C-22.375 4.1484375 -22.375 4.1484375 -19.3125 2.0859375 C-17.9821875 1.18875 -17.9821875 1.18875 -16.625 0.2734375 C-11.16497935 -1.68392839 -5.48496975 -2.16804547 0 0 Z " fill="#EDBC90" transform="translate(226.3125,85.9140625)"/>
<path d="M0 0 C163.68 0 327.36 0 496 0 C496 36.51550633 496 36.51550633 487.76953125 45.49609375 C480.84826909 51.37840265 472.18634373 52.15754029 463.44497681 52.12025452 C462.70481083 52.12110894 461.96464486 52.12196337 461.20204961 52.12284368 C458.73314482 52.12448484 456.26430865 52.11899953 453.79541016 52.11352539 C452.0211487 52.1132432 450.24688712 52.11340188 448.47262573 52.1139679 C443.66320681 52.11425462 438.85381286 52.10837803 434.04439974 52.10139394 C429.01555286 52.09513964 423.98670539 52.09455496 418.95785522 52.09336853 C409.43823751 52.09026134 399.9186313 52.08205619 390.39901865 52.07201904 C379.55990954 52.0608389 368.72079989 52.05534266 357.88168645 52.05032361 C335.58778455 52.03987308 313.293893 52.02228548 291 52 C291.44111671 55.35175946 291.89702604 58.70135121 292.35546875 62.05078125 C292.47917847 62.99215942 292.60288818 63.9335376 292.73034668 64.90344238 C294.61944266 78.55550768 299.73841218 92.51873479 310.71484375 101.46484375 C317.93924618 106.31816025 325.24801591 108.97080066 333.88891602 109.28955078 C344.45166228 109.69319323 353.31551095 110.42180436 361.30859375 118.02734375 C366.73596856 124.35719196 368.20909356 131.21278495 368.3125 139.375 C368.34150391 140.13039063 368.37050781 140.88578125 368.40039062 141.6640625 C368.44553244 145.63654225 368.2948302 147.53678224 366.10546875 150.9765625 C362.15436493 154.77372721 358.34514497 154.14826467 353.13737488 154.14717102 C352.20814392 154.15084771 351.27891296 154.1545244 350.32152349 154.1583125 C347.18854597 154.16938004 344.05560159 154.17319835 340.92260742 154.17700195 C338.68414707 154.18326423 336.44568777 154.18991081 334.20722961 154.19691467 C328.11216901 154.21434502 322.01711626 154.22488171 315.92203689 154.2331202 C312.11717005 154.23826543 308.31230567 154.24434133 304.50744057 154.25063133 C293.97572123 154.26750313 283.44400303 154.28213859 272.91227245 154.28938007 C270.17873826 154.29129001 267.44520408 154.29321034 264.71166992 154.29516602 C263.6925435 154.29589163 263.6925435 154.29589163 262.65282867 154.2966319 C251.64378709 154.30493431 240.63485409 154.33027462 229.62585994 154.36274669 C218.326779 154.3958031 207.02775123 154.41349463 195.72861558 154.41702431 C189.38306801 154.41937941 183.03769205 154.42839964 176.69219017 154.45348549 C170.72420301 154.47669738 164.75650129 154.48102713 158.78848076 154.47072411 C156.59587914 154.47022698 154.4032638 154.47659922 152.2107048 154.49028015 C149.22131628 154.50789206 146.23296407 154.5009455 143.24357605 154.48774719 C141.9367644 154.50420106 141.9367644 154.50420106 140.60355252 154.52098733 C136.53292027 154.47748491 134.50546996 154.31943404 130.9847765 152.0945158 C126.60344651 147.47093984 127.6197796 141.30661529 127.72265625 135.28515625 C127.94561854 130.16589769 129.11402442 126.25726211 132 122 C132.43570313 121.35675781 132.87140625 120.71351563 133.3203125 120.05078125 C137.86539794 114.12726826 143.66740426 111.10974221 151 110 C152.97469269 109.90913991 154.94963941 109.82034929 156.92553711 109.76123047 C170.12694586 109.3186924 181.32551928 105.94376075 190.78125 96.15625 C199.18409281 85.69556813 202.53937779 72.69588779 204.08203125 59.63671875 C204.17150024 58.89981812 204.26096924 58.16291748 204.35314941 57.40368652 C204.57141933 55.60277725 204.78608087 53.80143126 205 52 C203.62093648 52.00276538 203.62093648 52.00276538 202.2140131 52.00558662 C179.8290352 52.0497824 157.44406484 52.08286474 135.05905247 52.10362434 C124.23376968 52.11393073 113.40851603 52.1279789 102.58325195 52.15087891 C93.14641056 52.17083227 83.70959028 52.18372107 74.27272838 52.18817699 C69.27740454 52.19078106 64.28214109 52.19688855 59.28683662 52.21146011 C54.58127832 52.22507475 49.87580508 52.22921479 45.17022896 52.22621536 C43.44695574 52.22676379 41.72367956 52.23071804 40.00042343 52.23841095 C16.7784765 52.33695825 16.7784765 52.33695825 8 45 C-4.19197131 31.88890003 0 19.37674159 0 0 Z " fill="#CCD0DA" transform="translate(8,350)"/>
<path d="M0 0 C28.38 0 56.76 0 86 0 C86.99 7.26 87.98 14.52 89 22 C90.51458742 26.74843623 91.82893762 30.64553965 94 35 C94.45375 35.91007812 94.9075 36.82015625 95.375 37.7578125 C101.18841637 48.34202164 109.49257257 53.81725605 120.8203125 57.609375 C123.50323617 58.09018569 126.16872499 58.18920693 128.88891602 58.28955078 C139.45166228 58.69319323 148.31551095 59.42180436 156.30859375 67.02734375 C161.73596856 73.35719196 163.20909356 80.21278495 163.3125 88.375 C163.34150391 89.13039063 163.37050781 89.88578125 163.40039062 90.6640625 C163.44553244 94.63654225 163.2948302 96.53678224 161.10546875 99.9765625 C157.15436493 103.77372721 153.34514497 103.14826467 148.13737488 103.14717102 C147.20814392 103.15084771 146.27891296 103.1545244 145.32152349 103.1583125 C142.18854597 103.16938004 139.05560159 103.17319835 135.92260742 103.17700195 C133.68414707 103.18326423 131.44568777 103.18991081 129.20722961 103.19691467 C123.11216901 103.21434502 117.01711626 103.22488171 110.92203689 103.2331202 C107.11717005 103.23826543 103.31230567 103.24434133 99.50744057 103.25063133 C88.97572123 103.26750313 78.44400303 103.28213859 67.91227245 103.28938007 C65.17873826 103.29129001 62.44520408 103.29321034 59.71166992 103.29516602 C58.6925435 103.29589163 58.6925435 103.29589163 57.65282867 103.2966319 C46.64378709 103.30493431 35.63485409 103.33027462 24.62585994 103.36274669 C13.326779 103.3958031 2.02775123 103.41349463 -9.27138442 103.41702431 C-15.61693199 103.41937941 -21.96230795 103.42839964 -28.30780983 103.45348549 C-34.27579699 103.47669738 -40.24349871 103.48102713 -46.21151924 103.47072411 C-48.40412086 103.47022698 -50.5967362 103.47659922 -52.7892952 103.49028015 C-55.77868372 103.50789206 -58.76703593 103.5009455 -61.75642395 103.48774719 C-62.62763171 103.49871644 -63.49883948 103.50968568 -64.39644748 103.52098733 C-68.46707973 103.47748491 -70.49453004 103.31943404 -74.0152235 101.0945158 C-78.39655349 96.47093984 -77.3802204 90.30661529 -77.27734375 84.28515625 C-77.05438146 79.16589769 -75.88597558 75.25726211 -73 71 C-72.56429687 70.35675781 -72.12859375 69.71351563 -71.6796875 69.05078125 C-67.13460206 63.12726826 -61.33259574 60.10974221 -54 59 C-52.02530731 58.90913991 -50.05036059 58.82034929 -48.07446289 58.76123047 C-34.87305414 58.3186924 -23.67448072 54.94376075 -14.21875 45.15625 C-3.7016273 32.06350542 -1.90679892 16.20779083 0 0 Z " fill="#CBCFDA" transform="translate(213,401)"/>
<path d="M0 0 C2.21552007 -0.01927168 4.42720688 -0.08129115 6.6418457 -0.14453125 C17.78237954 -0.31000834 26.51006662 1.98061553 34.99536133 9.73046875 C45.18286133 20.9467557 45.18286133 20.9467557 45.18286133 25.48046875 C59.04286133 25.48046875 72.90286133 25.48046875 87.18286133 25.48046875 C87.18286133 42.31046875 87.18286133 59.14046875 87.18286133 76.48046875 C67.05786133 76.48046875 67.05786133 76.48046875 60.73706055 76.41796875 C59.07052035 76.43566261 57.4040077 76.45630015 55.73754883 76.48046875 C54.45569702 76.45146484 54.45569702 76.45146484 53.14794922 76.421875 C49.44845811 76.50788467 47.11939891 76.59235855 44.3636322 79.20562744 C42.84108845 81.23814398 41.51985307 83.3233309 40.18286133 85.48046875 C38.21904022 87.83269209 36.13084534 90.03412212 33.99536133 92.23046875 C33.49456055 92.78089844 32.99375977 93.33132812 32.4777832 93.8984375 C26.05294805 100.48922781 18.33577098 102.59829923 9.30004883 103.01171875 C6.88598662 103.02220328 4.47174665 103.01151551 2.05786133 102.98046875 C0.2422168 103.00367188 0.2422168 103.00367188 -1.61010742 103.02734375 C-11.09299847 102.98606892 -18.84201969 101.25629862 -25.81713867 94.48046875 C-30.43830037 88.27490875 -32.00705359 83.59190263 -32.37573242 75.98046875 C-31.53455782 72.21577123 -29.85615111 70.78606619 -26.81713867 68.48046875 C-23.32885742 67.9140625 -23.32885742 67.9140625 -19.50463867 67.91796875 C-13.56272599 67.75293564 -8.55414139 67.36285757 -3.81713867 63.48046875 C-0.00852881 58.69529226 1.57708272 54.77196319 1.45239258 48.60546875 C0.89374848 44.20108628 -0.96289287 41.05347933 -4.33666992 38.19140625 C-9.91706352 34.81156002 -15.99526696 35.00097434 -22.32885742 34.94921875 C-26.36286855 34.40713439 -27.96368051 33.31804496 -30.81713867 30.48046875 C-32.69897709 26.71679192 -32.32213251 22.57913971 -31.81713867 18.48046875 C-29.25191292 11.07248035 -23.69437036 4.86512443 -16.64355469 1.41772461 C-11.29358295 -0.35635689 -5.58951591 0.02933167 0 0 Z " fill="#CBCFD9" transform="translate(108.817138671875,136.51953125)"/>
<path d="M0 0 C28.38 0 56.76 0 86 0 C86.99 7.26 87.98 14.52 89 22 C90.51458742 26.74843623 91.82893762 30.64553965 94 35 C94.45375 35.91007812 94.9075 36.82015625 95.375 37.7578125 C100.85392053 47.73302107 108.38284512 53.16102874 119 57 C122.00151512 57.83279032 124.92955374 58.44631297 128 59 C128 59.33 128 59.66 128 60 C71.9 60 15.8 60 -42 60 C-42 59.67 -42 59.34 -42 59 C-40.90945312 58.79697266 -40.90945312 58.79697266 -39.796875 58.58984375 C-29.23470485 56.32845604 -19.38161653 52.00346523 -12.5234375 43.35546875 C-3.7095891 29.72790314 -1.88839335 16.05134348 0 0 Z " fill="#B9BFCC" transform="translate(213,401)"/>
<path d="M0 0 C7.71375 -0.103125 15.4275 -0.20625 23.375 -0.3125 C25.78989746 -0.35802002 28.20479492 -0.40354004 30.69287109 -0.45043945 C32.63637916 -0.46506121 34.5799027 -0.47779787 36.5234375 -0.48828125 C38.00130737 -0.526651 38.00130737 -0.526651 39.5090332 -0.5657959 C48.0118639 -0.57107454 54.38152564 1.93216304 60.875 7.4375 C66.73755041 14.50704609 68.43088656 19.48626323 68.33984375 28.5703125 C67.58491432 36.18902555 63.90905245 41.87523282 58.13671875 46.74609375 C51.01222408 50.92701292 44.80592431 51.41765366 36.71875 51.29296875 C35.78321289 51.28994751 34.84767578 51.28692627 33.88378906 51.28381348 C30.42241221 51.2682356 26.96119385 51.22635247 23.5 51.1875 C15.745 51.125625 7.99 51.06375 0 51 C0 34.17 0 17.34 0 0 Z " fill="#CBCFD9" transform="translate(367,162)"/>
<path d="M0 0 C6.90300618 1.38060124 11.03158829 4.18911143 15 10 C17.67108229 14.91819927 17.29553715 19.96738087 17.29052734 25.41479492 C17.30060318 26.98650452 17.30060318 26.98650452 17.31088257 28.58996582 C17.32987731 32.05351509 17.33378789 35.51687063 17.3359375 38.98046875 C17.34236562 41.39317402 17.34909399 43.80587852 17.35610962 46.21858215 C17.36808696 51.27830817 17.37179009 56.33796589 17.37060547 61.39770508 C17.37040254 67.86606547 17.39767628 74.33398522 17.43214989 80.80224133 C17.45444374 85.78754162 17.4584422 90.77273641 17.45738602 95.75808144 C17.45973931 98.14179308 17.46854743 100.52550776 17.48405075 102.90917015 C17.50375521 106.25249962 17.49785389 109.59488615 17.48583984 112.93823242 C17.49707886 113.91365494 17.50831787 114.88907745 17.51989746 115.89405823 C17.43360786 125.39492616 14.79362143 132.90486608 7.9765625 139.625 C6 141 6 141 0 143 C0 95.81 0 48.62 0 0 Z " fill="#E1AB7E" transform="translate(350,137)"/>
<path d="M0 0 C6.71436592 -0.5554163 11.708505 -0.53471154 17.28125 3.5078125 C22.64461576 8.16418914 25.62845577 12.76271901 26.44921875 19.9140625 C26.54217271 21.48363237 26.62063993 23.05410225 26.6875 24.625 C26.72439941 25.47586182 26.76129883 26.32672363 26.79931641 27.20336914 C27.06792784 34.94970951 27.04022415 42.68916517 26.875 50.4375 C26.86557373 51.6042627 26.85614746 52.77102539 26.84643555 53.97314453 C26.58992694 62.18021859 26.58992694 62.18021859 23.6640625 66.24609375 C20.10707032 68.58786719 18.17920487 68.74628658 14 68 C11.33645129 66.35436183 10.40957332 65.6955205 9 63 C8.28952308 58.32442433 8.41841056 53.66439711 8.51171875 48.94921875 C8.52105164 47.56632264 8.52816551 46.18340993 8.53315735 44.80049133 C8.55219052 41.17180225 8.6012568 37.54412396 8.65667725 33.91583252 C8.7079509 30.20900139 8.73068853 26.50200589 8.75585938 22.79492188 C8.80938148 15.52948856 8.8946467 8.26488625 9 1 C6.03 1 3.06 1 0 1 C0 0.67 0 0.34 0 0 Z " fill="#E0AB7E" transform="translate(213,85)"/>
<path d="M0 0 C4.38405368 0.63046261 6.86920127 1.18712211 10.1875 4.1875 C11.16783203 5.04408203 11.16783203 5.04408203 12.16796875 5.91796875 C17.2827882 11.7307593 17.55431848 17.40098612 17.75 24.8125 C17.7816626 25.82554199 17.8133252 26.83858398 17.84594727 27.88232422 C17.92426992 30.9218182 17.97024722 33.95966912 18 37 C18.0107959 37.87479004 18.0215918 38.74958008 18.03271484 39.65087891 C18.04240798 41.97861666 18.00301905 44.29829374 17.9375 46.625 C17.90527344 47.93726563 17.87304688 49.24953125 17.83984375 50.6015625 C16.67576036 55.31203948 15.04370085 56.40047803 11 59 C7.34530873 59 5.0964365 58.80405343 2.125 56.625 C-0.07014621 53.45423325 -0.12254384 50.6106053 -0.11352539 46.88598633 C-0.11344986 45.84513382 -0.11337433 44.80428131 -0.11329651 43.73188782 C-0.10813522 42.60993515 -0.10297394 41.48798248 -0.09765625 40.33203125 C-0.0962413 39.18208176 -0.09482635 38.03213226 -0.09336853 36.84733582 C-0.08776429 33.16903092 -0.07521104 29.49078655 -0.0625 25.8125 C-0.05748555 23.32096442 -0.05292255 20.82942789 -0.04882812 18.33789062 C-0.03779347 12.22523971 -0.02105118 6.11262418 0 0 Z " fill="#E1AB7F" transform="translate(307,120)"/>
<path d="M0 0 C5.6433145 1.04435147 9.79351564 3.03814261 13.30078125 7.74609375 C19.39083883 18.04382748 18.24186566 31.59721353 17.75 43.1875 C17.71060303 44.38934937 17.71060303 44.38934937 17.67041016 45.61547852 C17.4255908 50.17850485 16.87678633 53.26232998 14 57 C11.45770394 58.92863839 10.21654982 59.00902291 7 58.875 C3.49004003 57.85126168 2.27768778 56.82534176 0 54 C-0.48101807 51.46893311 -0.48101807 51.46893311 -0.45410156 48.58886719 C-0.45379944 47.50804871 -0.45349731 46.42723022 -0.45318604 45.31365967 C-0.43254089 44.15312073 -0.41189575 42.99258179 -0.390625 41.796875 C-0.38496521 40.60394836 -0.37930542 39.41102173 -0.37347412 38.1819458 C-0.35107926 34.37088944 -0.30087429 30.56077233 -0.25 26.75 C-0.22993915 24.16668024 -0.21168766 21.58334575 -0.1953125 19 C-0.15120411 12.66634606 -0.08425978 6.33324013 0 0 Z " fill="#E0AB7F" transform="translate(265,103)"/>
</svg>
